<?xml version="1.0" standalone="no"?><!DOCTYPE svg PUBLIC "-//W3C//DTD SVG 1.1//EN" "http://www.w3.org/Graphics/SVG/1.1/DTD/svg11.dtd"><svg t="1489138338239" class="icon" style="" viewBox="0 0 1024 1024" version="1.1" xmlns="http://www.w3.org/2000/svg" p-id="1988" xmlns:xlink="http://www.w3.org/1999/xlink" width="200" height="200"><defs><style type="text/css"></style></defs><path d="M219.328307 0h-4.211103A164.934887 164.934887 0 0 0 50.182317 164.934887v691.322824a164.934887 164.934887 0 0 0 164.934887 164.934887h758.700479l-18.949965-62.464702a350.925291 350.925291 0 0 1 0-204.23852l18.949965-62.464702V0zM934.514051 723.607951l-7.720357 25.266621v9.825908H124.578478a134.755312 134.755312 0 0 1 90.538726-35.092529z m-835.202194 210.555174a135.457162 135.457162 0 0 1-13.335161-28.775873H913.458533c0 9.825908 0 18.949966 4.912954 28.775873z m-21.055517-70.185058a140.370117 140.370117 0 0 1 0-14.037011h833.096641v28.775873H80.361892a140.370117 140.370117 0 0 1-1.403701-19.651816z m842.220699-70.185058c0 9.825908 0 18.949966-4.912954 28.775874H86.678547a140.370117 140.370117 0 0 1 13.335161-28.775874z m-701.850583 210.555175a134.755312 134.755312 0 0 1-90.538725-35.092529h796.600412v9.825908l7.720356 25.266621z" fill="#e6e6e6" p-id="1989"></path></svg>